<svg width="24" height="24" viewBox="0 0 24 24" fill="none" xmlns="http://www.w3.org/2000/svg">
<path fill-rule="evenodd" clip-rule="evenodd" d="M12 24C18.6274 24 24 18.6274 24 12C24 5.37258 18.6274 0 12 0C5.37259 0 0 5.37258 0 12C0 18.6274 5.37259 24 12 24ZM11.8548 5.32264C10.8388 7.46606 9.82271 9.61189 8.80666 11.7577C7.79048 13.9038 6.77423 16.0499 5.75805 18.1936H8.37093C9.19357 16.5339 10.0161 14.8718 10.8387 13.2097C11.6613 11.5476 12.4838 9.88553 13.3065 8.22584L11.8548 5.32264ZM13.3064 13.258C13.7249 12.3871 14.1434 11.5162 14.5644 10.6452C15.1788 11.9032 15.7909 13.1612 16.4029 14.4192C17.0151 15.6773 17.6272 16.9354 18.2418 18.1936H15.4353C15.2757 17.8211 15.1136 17.4509 14.9515 17.0807C14.7894 16.7106 14.6273 16.3404 14.4676 15.9678H12.0482H11.9999L12.0482 15.871C12.4693 15 12.8878 14.129 13.3064 13.258Z" fill="url(#paint0_linear_9033_8902)"/>
<defs>
<linearGradient id="paint0_linear_9033_8902" x1="24" y1="-7.15256e-07" x2="-2.14577e-06" y2="24" gradientUnits="userSpaceOnUse">
<stop stop-color="#B147E1"/>
<stop offset="1" stop-color="#5236DD"/>
</linearGradient>
</defs>
</svg>
