<svg width="358" height="230" viewBox="0 0 358 230" fill="none" xmlns="http://www.w3.org/2000/svg">
<path d="M44.0343 105.093L34.4399 140.114C34.4399 140.114 28.6403 160.389 28.6403 166.072C28.6403 171.755 30.8599 184.965 30.8599 184.965L14.1055 220.754H76.2543L82.8415 194.258C82.8415 194.258 98.4503 179.589 99.5959 173.138H67.3043C67.3043 173.138 67.8771 145.259 56.6359 135.199C56.6359 135.199 64.7983 112.235 58.9987 102.943C53.1991 93.6498 45.1799 97.029 44.0343 105.093Z" fill="#FFC2A7"/>
<path d="M66.66 185.349C66.5884 185.349 66.4452 185.349 66.3736 185.272C65.8724 185.118 65.586 184.581 65.7292 184.043C66.5168 181.125 66.3736 173.291 66.3736 173.214C66.3736 172.677 66.8032 172.139 67.3044 172.139C67.8056 172.139 68.3068 172.6 68.3068 173.138C68.3068 173.445 68.45 181.355 67.5908 184.581C67.4476 185.042 67.0896 185.349 66.66 185.349Z" fill="#D88260"/>
<path d="M71.5285 202.014C70.9557 202.014 70.5977 201.554 70.5977 200.939C70.5977 200.478 70.8841 200.094 71.2421 199.941C76.8269 198.174 82.0537 193.413 82.1253 193.413C82.4833 193.029 83.1277 193.029 83.4857 193.49C83.8437 193.874 83.8437 194.565 83.4141 194.949L83.3425 195.026C83.1277 195.256 77.7577 200.018 71.7433 201.938C71.7433 202.014 71.6001 202.014 71.5285 202.014Z" fill="#D88260"/>
<path d="M32.9362 193.259C32.5782 193.259 32.2202 193.029 32.077 192.722C31.7906 191.954 31.5758 191.109 31.4326 190.264C31.0746 188.651 30.5734 186.27 30.0722 185.502C29.7858 185.042 29.8574 184.427 30.287 184.043C30.7166 183.736 31.2894 183.813 31.6474 184.274C31.6474 184.274 31.6474 184.274 31.6474 184.35C32.2918 185.349 32.7214 187.346 33.2942 189.726C33.4374 190.494 33.7238 191.493 33.7954 191.723C34.0102 192.261 33.7954 192.875 33.3658 193.106C33.2226 193.182 33.0794 193.259 32.9362 193.259Z" fill="#D88260"/>
<path d="M56.636 136.274C56.278 136.274 55.9916 136.043 55.8484 135.736C54.3448 133.202 52.2684 130.206 51.5524 129.899C51.0512 129.746 50.7648 129.131 50.908 128.594C51.0512 128.056 51.624 127.749 52.1252 127.902C52.1968 127.902 52.1968 127.902 52.2684 127.979C53.9868 128.67 56.7792 133.278 57.5668 134.661C57.8532 135.122 57.71 135.813 57.2804 136.12C57.0656 136.197 56.8508 136.274 56.636 136.274Z" fill="#D88260"/>
<path d="M126.088 174.213H71.2422C70.741 174.213 70.2398 173.752 70.2398 173.138C70.2398 172.523 70.6694 172.062 71.2422 172.062H126.088C130.742 172.062 134.537 167.992 134.537 163V54.0208C134.537 49.0288 130.742 44.9584 126.088 44.9584H59.3566C54.7026 44.9584 50.9078 49.0288 50.9078 54.0208V97.336C50.9078 97.8736 50.4782 98.3344 49.9054 98.3344C49.4042 98.3344 48.9746 97.8736 48.9746 97.336V54.0208C48.9746 47.8768 53.6286 42.8848 59.3566 42.8848H126.088C131.816 42.8848 136.47 47.8768 136.47 54.0208V163C136.47 169.221 131.816 174.213 126.088 174.213Z" fill="#000111"/>
<path d="M56.7788 93.4193V52.4849H76.612C77.7576 52.4849 78.6884 53.4833 78.6884 54.7121V55.8641C78.6884 57.0929 79.6192 58.0913 80.7648 58.0913C80.7648 58.0913 80.7648 58.0913 80.8364 58.0913H106.398C107.543 58.0913 108.474 57.0929 108.474 55.8641C108.474 54.6353 109.405 53.6369 110.55 53.6369H126.446V162.386H70.8124C70.8124 162.386 68.8792 136.811 61.0032 130.437C61.0032 130.437 72.0296 102.635 56.7788 93.4193Z" fill="url(#paint0_linear_13510_28650)"/>
<path d="M89.1422 54.9424C90.5263 54.9424 91.6482 53.7389 91.6482 52.2544C91.6482 50.7699 90.5263 49.5664 89.1422 49.5664C87.7582 49.5664 86.6362 50.7699 86.6362 52.2544C86.6362 53.7389 87.7582 54.9424 89.1422 54.9424Z" fill="#000111"/>
<path d="M95.9441 53.6369C96.6559 53.6369 97.2329 53.018 97.2329 52.2545C97.2329 51.491 96.6559 50.8721 95.9441 50.8721C95.2323 50.8721 94.6553 51.491 94.6553 52.2545C94.6553 53.018 95.2323 53.6369 95.9441 53.6369Z" fill="#000111"/>
<path d="M282.319 172.37H141.41C140.909 172.37 140.407 171.909 140.407 171.294C140.407 170.68 140.837 170.219 141.41 170.219H282.319C285.827 170.219 288.691 167.147 288.619 163.384C288.619 161.234 287.689 159.237 286.042 157.931L247.807 127.902C247.593 127.672 247.449 127.365 247.449 127.058V18.6927C247.449 14.0847 243.941 10.3215 239.573 10.3215H97.0179C92.7219 10.3215 89.2135 14.0847 89.2135 18.6927V42.6543C89.2135 43.1919 88.7839 43.7295 88.2827 43.7295C87.7815 43.7295 87.2803 43.2687 87.2803 42.7311V18.7695C87.2803 13.0095 91.6479 8.32471 97.0179 8.32471H239.645C245.015 8.32471 249.383 13.0095 249.383 18.8463V126.52L287.259 156.242C290.982 159.16 291.77 164.69 289.049 168.683C287.474 170.987 284.968 172.37 282.319 172.37Z" fill="#000111"/>
<path d="M248.38 128.133H135.968C135.467 128.133 134.966 127.672 134.966 127.058C134.966 126.443 135.395 125.982 135.968 125.982H248.452C248.953 125.982 249.454 126.443 249.454 127.058C249.454 127.672 248.953 128.133 248.38 128.133Z" fill="#000111"/>
<path d="M239.287 118.763H136.255C135.754 118.763 135.324 118.302 135.324 117.688C135.324 117.15 135.754 116.689 136.255 116.689H238.356V18.9997H95.3712V41.7325C95.3712 42.2701 94.9416 42.7309 94.3688 42.7309C93.8676 42.7309 93.438 42.2701 93.438 41.7325V18.0013C93.438 17.4637 93.8676 17.0029 94.3688 17.0029H239.216C239.717 17.0029 240.218 17.4637 240.218 18.0013V117.765C240.29 118.302 239.86 118.763 239.287 118.763Z" fill="#000111"/>
<path d="M106.756 33.7453C108.575 33.7453 110.049 32.1636 110.049 30.2125C110.049 28.2614 108.575 26.6797 106.756 26.6797C104.937 26.6797 103.462 28.2614 103.462 30.2125C103.462 32.1636 104.937 33.7453 106.756 33.7453Z" fill="url(#paint1_linear_13510_28650)"/>
<path d="M115.992 33.7453C117.811 33.7453 119.285 32.1636 119.285 30.2125C119.285 28.2614 117.811 26.6797 115.992 26.6797C114.173 26.6797 112.698 28.2614 112.698 30.2125C112.698 32.1636 114.173 33.7453 115.992 33.7453Z" fill="url(#paint2_linear_13510_28650)"/>
<path d="M125.3 33.7453C127.119 33.7453 128.594 32.1636 128.594 30.2125C128.594 28.2614 127.119 26.6797 125.3 26.6797C123.481 26.6797 122.006 28.2614 122.006 30.2125C122.006 32.1636 123.481 33.7453 125.3 33.7453Z" fill="url(#paint3_linear_13510_28650)"/>
<path d="M287.474 159.851H209.859C209.501 159.851 209.215 159.621 209 159.313L203.344 148.792H148.713L142.842 158.853C142.627 159.16 142.34 159.313 142.054 159.313H135.324C134.822 159.313 134.321 158.853 134.321 158.238C134.321 157.624 134.751 157.163 135.324 157.163H141.481L147.352 147.179C147.496 146.872 147.854 146.718 148.14 146.718H203.845C204.203 146.718 204.489 146.949 204.704 147.256L210.36 157.777H287.402C287.903 157.701 288.404 158.161 288.476 158.699C288.548 159.237 288.118 159.774 287.617 159.851C287.545 159.928 287.545 159.928 287.474 159.851Z" fill="#000111"/>
<path d="M209.86 159.313H141.983C141.482 159.313 140.98 158.853 140.98 158.238C140.98 157.624 141.41 157.163 141.983 157.163H209.86C210.361 157.163 210.862 157.624 210.862 158.238C210.862 158.853 210.361 159.313 209.86 159.313Z" fill="#000111"/>
<path d="M202.843 74.0654H125.73V117.457H202.843V74.0654Z" fill="url(#paint4_linear_13510_28650)"/>
<path d="M149.859 74.0656C160.654 74.0656 169.406 64.6786 169.406 53.0992C169.406 41.5198 160.654 32.1328 149.859 32.1328C139.063 32.1328 130.312 41.5198 130.312 53.0992C130.312 64.6786 139.063 74.0656 149.859 74.0656Z" fill="#FED490"/>
<path d="M145.134 54.7888C141.124 54.7888 137.902 53.8672 137.043 51.1792C135.897 47.6464 138.117 43.192 143.558 37.816C146.136 35.3584 148.857 33.0544 151.721 30.9808C152.15 30.6736 152.795 30.8272 153.081 31.3648C153.368 31.8256 153.224 32.44 152.795 32.7472C148.356 35.8192 137.114 45.0352 138.904 50.488C140.336 54.9424 156.518 51.7168 167.473 47.8768C167.974 47.7232 168.547 48.0304 168.69 48.568C168.833 49.1056 168.547 49.72 168.046 49.8736C164.895 50.9488 153.296 54.7888 145.134 54.7888Z" fill="#000111"/>
<path d="M159.024 72.2993C158.809 72.2993 158.666 72.2225 158.451 72.1457C158.021 71.8385 157.878 71.1473 158.236 70.6865C158.236 70.6865 159.954 67.9985 159.382 65.6945C158.952 64.4657 158.021 63.4673 156.876 63.0833C152.365 61.0097 141.983 67.2305 138.331 69.8417C137.902 70.1489 137.257 69.9953 136.971 69.5345C136.684 69.0737 136.828 68.4593 137.257 68.1521C137.83 67.7681 151.291 58.2449 157.663 61.2401C159.596 62.1617 160.814 63.4673 161.243 65.2337C162.102 68.4593 159.954 71.8385 159.883 71.9921C159.668 72.1457 159.382 72.2993 159.024 72.2993Z" fill="#000111"/>
<path d="M187.664 118.302C187.163 118.302 186.733 117.841 186.662 117.304V74.8335C186.662 74.2959 187.091 73.7583 187.664 73.7583C188.237 73.7583 188.666 74.2191 188.666 74.8335V117.304C188.595 117.841 188.165 118.302 187.664 118.302Z" fill="#000111"/>
<path d="M84.8462 110.545C76.0394 110.545 68.8794 102.865 68.8794 93.4189C68.8794 83.9725 76.0394 76.2925 84.8462 76.2925C93.653 76.2925 100.813 83.9725 100.813 93.4189C100.741 102.865 93.653 110.545 84.8462 110.545ZM84.8462 78.3661C77.1134 78.3661 70.8126 85.0477 70.8126 93.3421C70.8126 101.636 77.0418 108.395 84.7746 108.395C92.5074 108.395 98.8082 101.713 98.8082 93.4189C98.8082 85.1245 92.579 78.4429 84.8462 78.3661Z" fill="white"/>
<path d="M125.73 118.149H83.0561C82.5549 118.149 82.0537 117.688 82.0537 117.15C82.0537 116.843 82.1969 116.536 82.4833 116.306L125.157 82.4368C125.587 82.1296 126.159 82.2064 126.517 82.6672C126.661 82.8208 126.732 83.0512 126.732 83.2816V117.15C126.732 117.611 126.303 118.072 125.73 118.149ZM85.9917 116.075H124.727V85.2784L85.9917 116.075Z" fill="#000111"/>
<path d="M219.096 114.693C231.355 114.693 241.292 104.033 241.292 90.8847C241.292 77.7359 231.355 67.0767 219.096 67.0767C206.838 67.0767 196.9 77.7359 196.9 90.8847C196.9 104.033 206.838 114.693 219.096 114.693Z" fill="url(#paint5_linear_13510_28650)"/>
<path d="M188.093 74.3727C187.592 74.3727 187.091 73.9119 187.091 73.3743C187.091 73.2975 187.091 73.1439 187.162 73.0671L199.334 26.9871C199.478 26.4495 199.979 26.1423 200.552 26.2959C200.695 26.3727 200.91 26.4495 200.981 26.6031L230.552 62.0847C230.91 62.5455 230.838 63.1599 230.48 63.5439C230.337 63.6207 230.194 63.7743 230.051 63.7743L188.308 74.3727C188.236 74.3727 188.165 74.3727 188.093 74.3727ZM200.695 29.3679L189.454 71.9151L228.046 62.1615L200.695 29.3679Z" fill="#000111"/>
<path d="M292.128 128.901C290.768 127.288 289.336 125.675 288.047 123.986C284.324 119.531 280.959 114.693 277.951 109.624C275.302 104.786 272.868 99.7937 270.72 94.7249C266.997 85.9697 263.56 76.1393 263.631 66.3089C268.93 67.4609 275.66 75.3713 275.66 75.3713C275.66 75.3713 275.159 61.4705 273.584 53.7137C270.362 37.2785 283.393 29.8289 288.763 37.5857C288.763 37.5857 293.274 57.7073 295.708 65.6945C298.143 73.6817 296.567 99.1025 293.56 115.845C292.773 120.146 292.343 124.523 292.128 128.901Z" fill="#D88260"/>
<path d="M251.03 123.448C261.34 125.061 267.569 111.16 259.622 103.864L259.407 103.634C252.032 97.1057 239.502 90.6545 239.502 90.6545C224.967 96.0305 211.65 82.5905 220.886 76.4465C220.886 76.4465 237.497 73.9889 246.304 73.6049C251.746 73.3745 262.629 81.6689 262.629 81.6689C262.629 81.6689 256.829 69.2273 252.462 62.7761C243.225 49.2593 252.175 36.6641 260.123 41.3489C260.123 41.3489 271.937 57.7073 277.235 63.9281C282.534 70.1489 288.906 94.5713 294.491 110.623C301.007 129.285 335.446 214.763 337.737 220.831L259.908 220.37C259.908 220.37 252.963 182.277 244.514 170.68C236.065 159.083 217.163 141.496 216.232 130.821C214.371 121.298 217.163 107.167 230.194 115.845C236.423 120.223 244.801 122.373 251.03 123.448Z" fill="#FFC2A7"/>
<path d="M282.534 106.936C282.104 106.936 281.746 106.629 281.603 106.168C280.601 102.789 279.169 99.6401 277.307 96.7217C274.443 92.4209 262.128 82.5137 261.985 82.4369C261.555 82.1297 261.484 81.4385 261.77 80.9777C262.056 80.5169 262.701 80.4401 263.13 80.7473C263.632 81.1313 275.875 90.8849 278.882 95.4929C280.816 98.5649 282.391 101.944 283.465 105.554C283.608 106.091 283.322 106.706 282.82 106.859C282.677 106.936 282.606 106.936 282.534 106.936Z" fill="#D88260"/>
<path d="M264.562 181.048H264.491C257.331 180.357 250.887 176.056 247.092 173.522C246.161 172.83 245.159 172.216 244.156 171.678C243.655 171.448 243.44 170.834 243.655 170.296C243.87 169.758 244.443 169.528 244.944 169.758C246.018 170.373 247.092 170.987 248.166 171.755C252.104 174.366 257.975 178.36 264.706 178.974C265.207 179.051 265.636 179.589 265.565 180.126C265.422 180.664 265.064 181.048 264.562 181.048Z" fill="#D88260"/>
<path d="M308.095 161.541C307.952 161.541 307.809 161.541 307.665 161.464C307.164 161.234 307.021 160.619 307.236 160.082C310.028 154.015 307.88 150.866 307.737 150.789C307.379 150.328 307.522 149.714 307.88 149.33C308.31 148.946 308.883 149.023 309.241 149.483C309.384 149.637 312.319 153.707 308.954 161.003C308.811 161.311 308.453 161.541 308.095 161.541Z" fill="#D88260"/>
<path d="M349.838 221.752H8.16256C7.66136 221.752 7.16016 221.291 7.16016 220.677C7.16016 220.062 7.58976 219.602 8.16256 219.602H349.909C350.411 219.602 350.912 220.062 350.912 220.677C350.912 221.291 350.411 221.752 349.838 221.752Z" fill="#000111"/>
<defs>
<linearGradient id="paint0_linear_13510_28650" x1="131.632" y1="1.49565" x2="63.1387" y2="159.124" gradientUnits="userSpaceOnUse">
<stop stop-color="#F38374"/>
<stop offset="1" stop-color="#C64234"/>
</linearGradient>
<linearGradient id="paint1_linear_13510_28650" x1="100.387" y1="19.0125" x2="111.828" y2="36.4142" gradientUnits="userSpaceOnUse">
<stop stop-color="#F38374"/>
<stop offset="1" stop-color="#C64234"/>
</linearGradient>
<linearGradient id="paint2_linear_13510_28650" x1="109.64" y1="19.0159" x2="121.081" y2="36.4177" gradientUnits="userSpaceOnUse">
<stop stop-color="#F38374"/>
<stop offset="1" stop-color="#C64234"/>
</linearGradient>
<linearGradient id="paint3_linear_13510_28650" x1="118.898" y1="19.0159" x2="130.339" y2="36.4177" gradientUnits="userSpaceOnUse">
<stop stop-color="#F38374"/>
<stop offset="1" stop-color="#C64234"/>
</linearGradient>
<linearGradient id="paint4_linear_13510_28650" x1="190.191" y1="17.2257" x2="147.962" y2="128.66" gradientUnits="userSpaceOnUse">
<stop stop-color="#0A6B5B"/>
<stop offset="0.78" stop-color="#005146"/>
<stop offset="0.91" stop-color="#005045"/>
</linearGradient>
<linearGradient id="paint5_linear_13510_28650" x1="236.846" y1="25.3665" x2="207.486" y2="119.385" gradientUnits="userSpaceOnUse">
<stop stop-color="#F38374"/>
<stop offset="1" stop-color="#C64234"/>
</linearGradient>
</defs>
</svg>
