<svg width="392" height="239" viewBox="0 0 392 239" fill="none" xmlns="http://www.w3.org/2000/svg">
<path d="M52.4619 101.296C55.3854 100.637 59.0393 102.012 62.1904 106.74C63.7239 109.041 64.3597 112.235 64.415 115.795C64.4702 119.345 63.9469 123.201 63.2197 126.773C62.4932 130.343 61.5665 133.615 60.8203 135.995C60.4473 137.185 60.1196 138.152 59.8857 138.819C59.769 139.153 59.6754 139.412 59.6113 139.587C59.5793 139.674 59.5547 139.742 59.5381 139.786C59.5298 139.808 59.5227 139.825 59.5186 139.836C59.5165 139.841 59.5157 139.846 59.5146 139.849C59.5142 139.85 59.5139 139.851 59.5137 139.852L59.5127 139.853L59.3867 140.185L59.6592 140.413C62.6965 142.959 64.9597 146.653 66.6396 150.803C68.3181 154.949 69.402 159.519 70.0996 163.777C70.7968 168.034 71.1054 171.968 71.2402 174.838C71.3076 176.272 71.3319 177.44 71.3389 178.248C71.3423 178.652 71.3414 178.966 71.3398 179.179C71.339 179.285 71.3377 179.366 71.3369 179.42C71.3365 179.447 71.3362 179.467 71.3359 179.48V179.5L71.3252 180.011H107.079C106.62 181.493 105.461 183.39 103.876 185.475C102.088 187.827 99.8155 190.349 97.5742 192.67C95.3343 194.989 93.1331 197.102 91.4912 198.634C90.6704 199.4 89.9897 200.02 89.5146 200.449C89.2774 200.663 89.0914 200.83 88.9648 200.942C88.9017 200.999 88.8528 201.042 88.8203 201.07C88.8041 201.085 88.7914 201.096 88.7832 201.104C88.7793 201.107 88.7764 201.11 88.7744 201.111C88.7735 201.112 88.7729 201.113 88.7725 201.113H88.7715V201.114L88.6572 201.214L88.6182 201.361L81.3975 228.562H13.5264L31.7832 192.042L31.8574 191.894L31.8281 191.73V191.729C31.8278 191.727 31.8277 191.724 31.8271 191.721C31.826 191.714 31.8236 191.704 31.8213 191.691C31.8167 191.665 31.8097 191.627 31.8008 191.576C31.7828 191.474 31.7563 191.324 31.7227 191.131C31.6554 190.744 31.5597 190.185 31.4443 189.496C31.2135 188.117 30.9054 186.217 30.5977 184.133C29.9803 179.952 29.3701 175.073 29.3701 172.158C29.3701 170.74 29.7604 168.36 30.3652 165.547C30.9669 162.749 31.7707 159.566 32.5752 156.563C33.3796 153.561 34.1845 150.742 34.7881 148.674C35.0898 147.64 35.3407 146.794 35.5166 146.206C35.6045 145.913 35.6736 145.684 35.7207 145.528C35.7442 145.451 35.7623 145.39 35.7744 145.351C35.7804 145.331 35.785 145.316 35.7881 145.306C35.7895 145.301 35.7912 145.297 35.792 145.295C35.7923 145.294 35.7928 145.293 35.793 145.292V145.291L35.7949 145.285L46.457 108.841L46.4658 108.809L46.4707 108.775C47.0843 104.731 49.5173 101.959 52.4619 101.296Z" fill="#FEFDFF" stroke="#9333EA"/>
<path d="M71.835 178.972C71.9741 178.972 72.1362 179.035 72.2646 179.152C72.3925 179.268 72.4492 179.401 72.4492 179.511C72.4492 179.682 72.4894 181.804 72.4102 184.311C72.3307 186.826 72.1325 189.649 71.6787 191.262C71.5773 191.567 71.3506 191.718 71.1191 191.718C71.107 191.718 71.0971 191.718 71.0879 191.718L71.0635 191.694L70.9385 191.658C70.6425 191.572 70.4843 191.287 70.5654 190.999C71.0236 189.409 71.2012 186.547 71.2705 184.131C71.3055 182.911 71.3137 181.784 71.3125 180.958C71.3119 180.544 71.3083 180.206 71.3057 179.968C71.3043 179.849 71.3037 179.755 71.3027 179.69C71.3023 179.657 71.302 179.632 71.3018 179.614C71.3015 179.6 71.3008 179.594 71.3008 179.591C71.3008 179.45 71.3643 179.286 71.4805 179.157C71.5963 179.028 71.7278 178.972 71.835 178.972Z" fill="#F5B03E" stroke="#9333EA"/>
<path d="M88.6611 200.964C88.8576 200.767 89.23 200.764 89.4336 201.01L89.4482 201.027L89.4639 201.043C89.6617 201.242 89.6632 201.621 89.418 201.826L89.4004 201.84L89.3838 201.856L89.3047 201.937C89.3025 201.939 89.2792 201.959 89.2236 202.007C89.1688 202.054 89.0922 202.118 88.9951 202.197C88.8007 202.356 88.526 202.574 88.1816 202.835C87.493 203.358 86.5265 204.054 85.3604 204.806C83.0232 206.311 79.9049 208.023 76.626 209.003L76.4531 209.054C76.3118 209.038 76.2136 208.983 76.1465 208.908C76.0629 208.815 75.9962 208.66 75.9961 208.443C75.9961 208.195 76.1628 207.968 76.3877 207.873C79.5465 206.932 82.5838 205.211 84.8311 203.736C85.9616 202.994 86.8987 202.31 87.5576 201.812C87.8868 201.564 88.1465 201.361 88.3252 201.222C88.3822 201.177 88.4301 201.14 88.4688 201.11H88.5137L88.6611 200.964Z" fill="#F5B03E" stroke="#9333EA"/>
<path d="M31 191.262C31.2188 191.128 31.4923 191.135 31.7109 191.307V191.334L31.7988 191.462C32.109 191.912 32.3896 192.626 32.6768 193.581C32.8191 194.054 32.9592 194.571 33.1035 195.126L33.5566 196.898C33.7232 197.722 34.0415 198.763 34.123 199.009L34.1299 199.029L34.1377 199.047C34.2797 199.38 34.1223 199.73 33.8965 199.843C33.8123 199.886 33.7565 199.913 33.7061 199.932C33.666 199.947 33.6472 199.949 33.6436 199.95C33.4254 199.95 33.2163 199.811 33.1426 199.679C32.8437 198.923 32.6163 198.086 32.4639 197.244L32.4619 197.231L32.459 197.217L32.1328 195.845C32.015 195.36 31.8888 194.862 31.7578 194.391C31.6268 193.92 31.488 193.469 31.3447 193.081C31.206 192.704 31.0507 192.354 30.876 192.1C30.7053 191.842 30.7362 191.499 31 191.262Z" fill="#F5B03E" stroke="#9333EA"/>
<path d="M54.8174 132.914L54.8496 132.946L54.9512 132.984C55.3235 133.125 55.8125 133.494 56.376 134.058C56.9275 134.609 57.5065 135.302 58.0615 136.027C59.1709 137.477 60.1557 139.019 60.5879 139.729L60.5928 139.738L60.5986 139.746C60.749 139.973 60.6829 140.35 60.458 140.538C60.2475 140.607 60.1077 140.648 59.9805 140.648C59.7996 140.648 59.6401 140.542 59.5527 140.366L59.541 140.343L59.5273 140.321L58.8701 139.308C58.1906 138.284 57.4582 137.249 56.7861 136.377C56.3387 135.796 55.9126 135.28 55.543 134.886C55.3584 134.689 55.1817 134.516 55.0195 134.378C54.8652 134.247 54.6929 134.121 54.5176 134.051L54.4941 134.041L54.4688 134.034L54.373 133.993C54.1584 133.872 54.0159 133.574 54.0957 133.293C54.1716 133.026 54.5061 132.832 54.8174 132.914Z" fill="#F5B03E" stroke="#9333EA"/>
<path d="M137.16 180.63H76.2121C75.6551 180.63 75.0981 180.15 75.0981 179.511C75.0981 178.872 75.5755 178.392 76.2121 178.392H137.16C142.332 178.392 146.549 174.156 146.549 168.962V55.5534C146.549 50.3585 142.332 46.1227 137.16 46.1227H63.004C57.8321 46.1227 53.6151 50.3585 53.6151 55.5534V100.629C53.6151 101.188 53.1377 101.668 52.5012 101.668C51.9442 101.668 51.4668 101.188 51.4668 100.629V55.5534C51.4668 49.1597 56.6386 43.9648 63.004 43.9648H137.16C143.526 43.9648 148.697 49.1597 148.697 55.5534V168.962C148.697 175.435 143.526 180.63 137.16 180.63Z" fill="#000111"/>
<path d="M60.1396 96.5535V53.9556H82.1796C83.4527 53.9556 84.4871 54.9945 84.4871 56.2733V57.4721C84.4871 58.7508 85.5214 59.7898 86.7945 59.7898C86.7945 59.7898 86.7945 59.7898 86.8741 59.7898H115.279C116.552 59.7898 117.587 58.7508 117.587 57.4721C117.587 56.1934 118.621 55.1544 119.894 55.1544H137.558V168.323H75.7347C75.7347 168.323 73.5864 141.709 64.8341 135.076C64.8341 135.076 77.0874 106.144 60.1396 96.5535Z" fill="url(#paint0_linear_15091_14931)"/>
<path d="M96.1032 56.5134C97.6412 56.5134 98.888 55.2611 98.888 53.7162C98.888 52.1713 97.6412 50.9189 96.1032 50.9189C94.5652 50.9189 93.3184 52.1713 93.3184 53.7162C93.3184 55.2611 94.5652 56.5134 96.1032 56.5134Z" fill="#000111"/>
<path d="M103.663 55.154C104.454 55.154 105.095 54.5099 105.095 53.7154C105.095 52.9209 104.454 52.2769 103.663 52.2769C102.872 52.2769 102.23 52.9209 102.23 53.7154C102.23 54.5099 102.872 55.154 103.663 55.154Z" fill="#000111"/>
<path d="M310.775 178.712H154.188C153.631 178.712 153.074 178.232 153.074 177.593C153.074 176.953 153.551 176.474 154.188 176.474H310.775C314.674 176.474 317.856 173.277 317.777 169.361C317.777 167.123 316.743 165.045 314.913 163.686L272.424 132.437C272.185 132.197 272.026 131.878 272.026 131.558V18.7894C272.026 13.9941 268.127 10.0779 263.274 10.0779H104.856C100.082 10.0779 96.1835 13.9941 96.1835 18.7894V43.7248C96.1835 44.2842 95.7061 44.8436 95.1491 44.8436C94.5921 44.8436 94.0352 44.3641 94.0352 43.8047V18.8693C94.0352 12.8752 98.8887 8 104.856 8H263.353C269.321 8 274.174 12.8752 274.174 18.9492V130.999L316.265 161.928C320.403 164.965 321.278 170.719 318.254 174.875C316.504 177.273 313.719 178.712 310.775 178.712Z" fill="#000111"/>
<path d="M273.06 132.677H148.14C147.583 132.677 147.026 132.197 147.026 131.558C147.026 130.919 147.504 130.439 148.14 130.439H273.14C273.697 130.439 274.254 130.919 274.254 131.558C274.254 132.197 273.697 132.677 273.06 132.677Z" fill="#000111"/>
<path d="M262.954 122.926H148.458C147.901 122.926 147.424 122.446 147.424 121.807C147.424 121.247 147.901 120.768 148.458 120.768H261.92V19.1082H103.025V42.7649C103.025 43.3243 102.548 43.8039 101.911 43.8039C101.354 43.8039 100.877 43.3243 100.877 42.7649V18.0692C100.877 17.5098 101.354 17.0303 101.911 17.0303H262.875C263.432 17.0303 263.989 17.5098 263.989 18.0692V121.887C264.068 122.446 263.591 122.926 262.954 122.926Z" fill="#000111"/>
<path d="M115.677 34.4543C117.698 34.4543 119.337 32.8083 119.337 30.7779C119.337 28.7475 117.698 27.1016 115.677 27.1016C113.655 27.1016 112.017 28.7475 112.017 30.7779C112.017 32.8083 113.655 34.4543 115.677 34.4543Z" fill="url(#paint1_linear_15091_14931)"/>
<path d="M125.941 34.4543C127.963 34.4543 129.601 32.8083 129.601 30.7779C129.601 28.7475 127.963 27.1016 125.941 27.1016C123.92 27.1016 122.281 28.7475 122.281 30.7779C122.281 32.8083 123.92 34.4543 125.941 34.4543Z" fill="url(#paint2_linear_15091_14931)"/>
<path d="M136.285 34.4543C138.306 34.4543 139.945 32.8083 139.945 30.7779C139.945 28.7475 138.306 27.1016 136.285 27.1016C134.264 27.1016 132.625 28.7475 132.625 30.7779C132.625 32.8083 134.264 34.4543 136.285 34.4543Z" fill="url(#paint3_linear_15091_14931)"/>
<path d="M316.504 165.684H230.253C229.856 165.684 229.537 165.444 229.299 165.124L223.013 154.175H162.303L155.779 164.645C155.54 164.964 155.222 165.124 154.904 165.124H147.424C146.868 165.124 146.311 164.645 146.311 164.005C146.311 163.366 146.788 162.886 147.424 162.886H154.267L160.792 152.497C160.951 152.177 161.349 152.017 161.667 152.017H223.57C223.968 152.017 224.286 152.257 224.525 152.577L230.81 163.526H316.424C316.981 163.446 317.538 163.925 317.618 164.485C317.697 165.044 317.22 165.604 316.663 165.684C316.583 165.764 316.583 165.764 316.504 165.684Z" fill="#000111"/>
<path d="M230.253 165.125H154.824C154.267 165.125 153.71 164.645 153.71 164.006C153.71 163.367 154.187 162.887 154.824 162.887H230.253C230.81 162.887 231.367 163.367 231.367 164.006C231.367 164.645 230.81 165.125 230.253 165.125Z" fill="#000111"/>
<path d="M222.456 76.4126H136.763V121.568H222.456V76.4126Z" fill="#BBF7D0"/>
<path d="M163.576 76.4133C175.573 76.4133 185.298 66.6448 185.298 54.5948C185.298 42.5448 175.573 32.7764 163.576 32.7764C151.58 32.7764 141.854 42.5448 141.854 54.5948C141.854 66.6448 151.58 76.4133 163.576 76.4133Z" fill="#C9B7FD"/>
<path d="M158.326 56.3535C153.87 56.3535 150.289 55.3945 149.335 52.5972C148.062 48.9208 150.528 44.2854 156.575 38.6909C159.44 36.1335 162.463 33.7358 165.646 31.578C166.123 31.2583 166.839 31.4181 167.158 31.9776C167.476 32.4571 167.317 33.0965 166.839 33.4161C161.906 36.613 149.414 46.2035 151.403 51.8779C152.995 56.5134 170.977 53.1567 183.15 49.1606C183.707 49.0008 184.344 49.3205 184.503 49.8799C184.662 50.4394 184.344 51.0787 183.787 51.2386C180.286 52.3575 167.396 56.3535 158.326 56.3535Z" fill="#000111"/>
<path d="M173.762 74.5751C173.523 74.5751 173.364 74.4952 173.125 74.4153C172.648 74.0956 172.489 73.3763 172.887 72.8968C172.887 72.8968 174.796 70.0996 174.16 67.7019C173.682 66.4232 172.648 65.3842 171.375 64.9846C166.362 62.8267 154.825 69.3003 150.767 72.0177C150.29 72.3373 149.574 72.1775 149.255 71.698C148.937 71.2185 149.096 70.5791 149.574 70.2594C150.21 69.8598 165.169 59.9496 172.25 63.0665C174.399 64.0255 175.751 65.3842 176.229 67.2224C177.183 70.5791 174.796 74.0956 174.717 74.2555C174.478 74.4153 174.16 74.5751 173.762 74.5751Z" fill="#000111"/>
<path d="M205.589 122.448C205.032 122.448 204.554 121.968 204.475 121.409V77.2122C204.475 76.6527 204.952 76.0933 205.589 76.0933C206.225 76.0933 206.702 76.5728 206.702 77.2122V121.409C206.623 121.968 206.146 122.448 205.589 122.448Z" fill="#000111"/>
<path d="M91.3303 114.376C81.5436 114.376 73.5869 106.384 73.5869 96.5534C73.5869 86.7231 81.5436 78.731 91.3303 78.731C101.117 78.731 109.074 86.7231 109.074 96.5534C108.994 106.384 101.117 114.376 91.3303 114.376ZM91.3303 80.8888C82.7371 80.8888 75.7352 87.842 75.7352 96.4734C75.7352 105.105 82.6575 112.138 91.2507 112.138C99.8439 112.138 106.846 105.185 106.846 96.5534C106.846 87.9219 99.9235 80.9687 91.3303 80.8888Z" fill="white"/>
<path d="M136.763 122.288H89.3415C88.7845 122.288 88.2275 121.808 88.2275 121.249C88.2275 120.929 88.3867 120.609 88.7049 120.37L136.127 85.1244C136.604 84.8047 137.241 84.8847 137.638 85.3642C137.798 85.524 137.877 85.7638 137.877 86.0036V121.249C137.877 121.728 137.4 122.208 136.763 122.288ZM92.6037 120.13H135.649V88.0815L92.6037 120.13Z" fill="#000111"/>
<path d="M240.518 118.691C254.141 118.691 265.184 107.598 265.184 93.9152C265.184 80.232 254.141 69.1396 240.518 69.1396C226.896 69.1396 215.853 80.232 215.853 93.9152C215.853 107.598 226.896 118.691 240.518 118.691Z" fill="url(#paint4_linear_15091_14931)"/>
<path d="M206.065 76.7329C205.508 76.7329 204.951 76.2534 204.951 75.6939C204.951 75.614 204.951 75.4542 205.031 75.3743L218.557 27.4216C218.716 26.8621 219.273 26.5424 219.91 26.7023C220.069 26.7822 220.308 26.8621 220.387 27.022L253.248 63.9455C253.646 64.4251 253.566 65.0644 253.169 65.464C253.009 65.544 252.85 65.7038 252.691 65.7038L206.304 76.7329C206.224 76.7329 206.145 76.7329 206.065 76.7329ZM220.069 29.8991L207.577 74.1754L250.463 64.0255L220.069 29.8991Z" fill="#000111"/>
<path d="M312.246 35.7607C314.211 35.8903 316.075 36.8212 317.474 38.6699C317.482 38.7057 317.494 38.751 317.507 38.8047C317.544 38.9602 317.6 39.1891 317.671 39.4834C317.813 40.0726 318.019 40.9237 318.275 41.9707C318.788 44.0646 319.5 46.9434 320.296 50.082C321.887 56.3532 323.82 63.6823 325.179 67.8564C325.833 69.866 326.229 73.0202 326.393 76.9326C326.556 80.8334 326.487 85.4477 326.229 90.3525C325.712 100.163 324.442 111.108 322.776 119.794C321.972 123.908 321.504 128.084 321.246 132.261C319.979 130.871 318.702 129.487 317.528 128.046L317.521 128.037L317.514 128.028L316.746 127.159C312.935 122.791 309.469 118.082 306.351 113.16C303.783 108.768 301.398 104.254 299.248 99.6729L298.341 97.7051L297.57 95.9863C293.835 87.5285 290.584 78.2493 290.51 68.9775C293.173 69.7247 296.156 71.8366 298.576 73.8867C299.866 74.9797 300.975 76.0366 301.762 76.8203C302.155 77.212 302.466 77.5353 302.68 77.7598C302.786 77.8718 302.868 77.9593 302.923 78.0186C302.95 78.0482 302.972 78.071 302.985 78.0859C302.992 78.0934 302.998 78.0989 303.001 78.1025C303.002 78.1041 303.003 78.1056 303.004 78.1064L303.005 78.1074L303.928 79.123L303.875 77.752V77.749C303.875 77.7472 303.874 77.7446 303.874 77.7412C303.874 77.7342 303.874 77.7237 303.873 77.71C303.872 77.6821 303.87 77.6402 303.868 77.5859C303.864 77.4775 303.857 77.3176 303.848 77.1113C303.829 76.6988 303.8 76.1009 303.76 75.3584C303.68 73.8733 303.556 71.8086 303.377 69.4912C303.041 65.1532 302.511 59.9036 301.719 55.9092L301.557 55.1279C299.799 46.7288 302.488 40.7232 306.229 37.7949C308.106 36.3264 310.245 35.6289 312.246 35.7607Z" fill="#FEFDFF" stroke="#9333EA"/>
<path d="M279.787 42.2822C281.637 41.5816 283.728 41.6546 285.781 42.7588C285.803 42.7872 285.83 42.8226 285.862 42.8643C285.96 42.9907 286.105 43.1768 286.29 43.416C286.661 43.8944 287.197 44.5848 287.858 45.4336C289.182 47.1314 291.007 49.4632 293.018 51.9971C297.034 57.06 301.799 62.9479 304.756 66.1992C306.17 67.7539 307.69 70.4914 309.277 74.041C310.858 77.5768 312.483 81.8679 314.123 86.4893C317.188 95.1288 320.315 104.966 323.249 113.038L323.833 114.629C330.877 133.522 367.302 218.262 371.608 228.637L286.281 228.164C286.278 228.148 286.276 228.132 286.272 228.115C286.213 227.821 286.126 227.388 286.011 226.833C285.781 225.723 285.442 224.126 285.006 222.171C284.134 218.261 282.874 212.92 281.32 207.201C279.767 201.484 277.917 195.381 275.865 189.947C273.818 184.525 271.554 179.725 269.158 176.646C266.797 173.61 263.71 170.189 260.405 166.604C257.095 163.012 253.564 159.254 250.292 155.523C247.02 151.793 244.022 148.108 241.78 144.671C239.531 141.223 238.08 138.08 237.833 135.428L237.83 135.399L237.824 135.371C237.317 132.939 237.127 130.211 237.349 127.631C237.571 125.045 238.204 122.644 239.312 120.84C240.413 119.05 241.97 117.86 244.083 117.617C246.221 117.372 249.015 118.085 252.586 120.312C259.599 124.924 268.989 127.174 275.925 128.295L275.932 128.296C287.844 130.041 295.105 115.003 285.897 107.059L285.668 106.829L285.651 106.812L285.633 106.797L284.842 106.154C280.808 102.949 275.656 99.8173 271.426 97.4443C269.167 96.177 267.164 95.1225 265.727 94.3848C265.008 94.0159 264.43 93.7261 264.031 93.5283C263.832 93.4295 263.677 93.354 263.572 93.3027C263.52 93.2771 263.48 93.2572 263.453 93.2441C263.44 93.2376 263.429 93.2328 263.422 93.2295L263.412 93.2246L263.194 93.6748L263.411 93.2246L263.226 93.1348L263.03 93.2021C255.12 95.942 247.563 93.8783 243.26 90.3896C241.104 88.6414 239.815 86.58 239.636 84.6377C239.462 82.7606 240.313 80.8783 242.685 79.3691C242.713 79.3653 242.746 79.3617 242.784 79.3564C242.921 79.3377 243.124 79.3097 243.386 79.2744C243.909 79.2038 244.668 79.1024 245.608 78.9795C247.49 78.7337 250.102 78.402 253.019 78.0576C258.857 77.3683 265.901 76.6306 270.773 76.4316L270.772 76.4307C272.179 76.3749 273.991 76.8398 275.957 77.6084C277.911 78.3721 279.967 79.416 281.846 80.4736C283.723 81.5305 285.414 82.5962 286.636 83.3975C287.246 83.7977 287.739 84.1315 288.079 84.3652C288.249 84.4821 288.381 84.5744 288.47 84.6367C288.514 84.6679 288.548 84.6921 288.57 84.708C288.582 84.7159 288.59 84.7216 288.596 84.7256C288.598 84.7273 288.6 84.7285 288.602 84.7295L288.604 84.7305V84.7314L289.342 84.1016V84.1006L289.341 84.0986C289.34 84.097 289.338 84.0949 289.337 84.0918C289.334 84.0855 289.329 84.0758 289.323 84.0635C289.311 84.0386 289.292 84.0015 289.268 83.9531C289.219 83.8562 289.147 83.7134 289.054 83.5293C288.867 83.1611 288.597 82.6274 288.256 81.9668C287.575 80.6457 286.615 78.8143 285.504 76.7725C283.285 72.6949 280.448 67.7547 278.001 64.3701L278 64.3691L277.542 63.7217C272.96 57.0507 272.999 50.7382 275.135 46.6426C276.24 44.5227 277.903 42.9958 279.787 42.2822Z" fill="#FEFDFF" stroke="#9333EA"/>
<path d="M288.356 83.8818C288.493 83.6757 288.88 83.5864 289.171 83.7793C289.51 84.0249 293.006 86.6319 296.843 89.7764C298.783 91.3662 300.805 93.0897 302.549 94.7119C304.3 96.341 305.743 97.8441 306.546 98.9961C308.665 102.151 310.39 105.617 311.567 109.316V109.317C311.659 109.639 311.46 109.982 311.194 110.059L311.149 110.071L311.108 110.092C311.06 110.116 311.042 110.119 311.045 110.118C311.041 110.118 311.032 110.119 311.015 110.119C310.785 110.119 310.56 109.97 310.457 109.669C309.328 106.106 307.715 102.785 305.619 99.708L305.613 99.6992C304.785 98.5342 303.299 97.0203 301.564 95.4219C299.822 93.8156 297.798 92.0981 295.875 90.5215C293.951 88.9444 292.122 87.5049 290.765 86.4551C290.086 85.9304 289.524 85.5027 289.127 85.2031C288.928 85.0534 288.77 84.9349 288.658 84.8525C288.603 84.8115 288.557 84.7788 288.523 84.7549C288.507 84.7432 288.492 84.7316 288.479 84.7227C288.473 84.7183 288.464 84.7134 288.456 84.708H288.457C288.251 84.57 288.16 84.1771 288.356 83.8818Z" fill="#FEFDFF" stroke="#9333EA"/>
<path d="M268.269 176.75C268.393 176.459 268.722 176.322 269.032 176.449C270.219 177.085 271.383 177.71 272.544 178.487L272.558 178.497C276.911 181.2 283.528 185.422 291.137 186.08C291.274 186.102 291.422 186.188 291.53 186.32C291.631 186.444 291.669 186.576 291.661 186.687C291.538 187.074 291.3 187.242 291.042 187.242H290.989C284.153 186.619 277.897 183.172 273.608 180.55L271.894 179.486C270.841 178.756 269.714 178.109 268.591 177.545L268.577 177.538L268.563 177.533L268.462 177.477C268.242 177.324 268.15 177.029 268.269 176.75Z" fill="#FEFDFF" stroke="#9333EA"/>
<path d="M339.518 155.107C339.766 154.911 340.079 154.939 340.308 155.215L340.322 155.231L340.338 155.248C340.346 155.261 340.544 155.504 340.789 155.992C341.04 156.492 341.329 157.229 341.504 158.191C341.852 160.108 341.751 162.956 339.927 166.66C339.859 166.796 339.645 166.942 339.42 166.942C339.249 166.942 339.206 166.935 339.167 166.916L339.153 166.909L339.14 166.903C338.905 166.802 338.762 166.501 338.925 166.12L338.924 166.119C340.503 162.894 340.706 160.405 340.462 158.682C340.34 157.82 340.108 157.157 339.89 156.696C339.781 156.467 339.674 156.285 339.584 156.152C339.539 156.087 339.497 156.029 339.457 155.982C339.438 155.96 339.415 155.935 339.391 155.911C339.235 155.7 339.26 155.379 339.518 155.107Z" fill="#FEFDFF" stroke="#9333EA"/>
<path d="M385.807 230.101H6.11393C5.55697 230.101 5 229.622 5 228.982C5 228.343 5.4774 227.863 6.11393 227.863H385.886C386.443 227.863 387 228.343 387 228.982C387 229.622 386.443 230.101 385.807 230.101Z" fill="#000111"/>
<defs>
<linearGradient id="paint0_linear_15091_14931" x1="143.322" y1="0.89416" x2="75.2441" y2="168.198" gradientUnits="userSpaceOnUse">
<stop stop-color="#C9B7FD"/>
<stop offset="1" stop-color="#6005FF"/>
</linearGradient>
<linearGradient id="paint1_linear_15091_14931" x1="108.6" y1="19.1228" x2="120.179" y2="37.9303" gradientUnits="userSpaceOnUse">
<stop stop-color="#FEF08A"/>
<stop offset="1" stop-color="#C64234"/>
</linearGradient>
<linearGradient id="paint2_linear_15091_14931" x1="118.882" y1="19.1263" x2="130.462" y2="37.9339" gradientUnits="userSpaceOnUse">
<stop stop-color="#FEF08A"/>
<stop offset="1" stop-color="#C64234"/>
</linearGradient>
<linearGradient id="paint3_linear_15091_14931" x1="129.17" y1="19.1263" x2="140.75" y2="37.9339" gradientUnits="userSpaceOnUse">
<stop stop-color="#FEF08A"/>
<stop offset="1" stop-color="#C64234"/>
</linearGradient>
<linearGradient id="paint4_linear_15091_14931" x1="260.243" y1="25.7344" x2="231.315" y2="124.656" gradientUnits="userSpaceOnUse">
<stop stop-color="#F38374"/>
<stop offset="1" stop-color="#6005FF"/>
</linearGradient>
</defs>
</svg>
